<svg width="142" height="36" viewBox="0 0 142 36" fill="none" xmlns="http://www.w3.org/2000/svg">
<path d="M54.104 23.976H55.688V13.224H54.104V10.2H61.472C62.272 10.2 62.976 10.312 63.584 10.536C64.208 10.76 64.728 11.064 65.144 11.448C65.576 11.832 65.896 12.296 66.104 12.84C66.328 13.368 66.44 13.944 66.44 14.568V14.856C66.44 15.816 66.168 16.584 65.624 17.16C65.096 17.736 64.424 18.136 63.608 18.36V18.792C64.424 19.016 65.096 19.424 65.624 20.016C66.168 20.592 66.44 21.36 66.44 22.32V22.608C66.44 23.232 66.328 23.816 66.104 24.36C65.896 24.888 65.576 25.352 65.144 25.752C64.728 26.136 64.208 26.44 63.584 26.664C62.976 26.888 62.272 27 61.472 27H54.104V23.976ZM58.856 23.976H61.16C61.832 23.976 62.376 23.832 62.792 23.544C63.208 23.256 63.416 22.776 63.416 22.104V21.96C63.416 21.288 63.208 20.808 62.792 20.52C62.376 20.232 61.832 20.088 61.16 20.088H58.856V23.976ZM58.856 17.064H61.16C61.832 17.064 62.376 16.928 62.792 16.656C63.208 16.368 63.416 15.888 63.416 15.216V15.072C63.416 14.4 63.208 13.928 62.792 13.656C62.376 13.368 61.832 13.224 61.16 13.224H58.856V17.064ZM68.8473 16.728C68.8473 14.552 69.3913 12.864 70.4793 11.664C71.5833 10.464 73.1033 9.864 75.0393 9.864C76.9753 9.864 78.4873 10.464 79.5753 11.664C80.6793 12.864 81.2313 14.552 81.2313 16.728V20.472C81.2313 22.712 80.6793 24.416 79.5753 25.584C78.4873 26.752 76.9753 27.336 75.0393 27.336C73.1033 27.336 71.5833 26.752 70.4793 25.584C69.3913 24.416 68.8473 22.712 68.8473 20.472V16.728ZM75.0393 24.456C75.6153 24.456 76.0953 24.368 76.4793 24.192C76.8633 24 77.1753 23.736 77.4153 23.4C77.6553 23.064 77.8233 22.664 77.9193 22.2C78.0153 21.736 78.0633 21.224 78.0633 20.664V16.536C78.0633 16.008 78.0073 15.512 77.8953 15.048C77.7833 14.584 77.6073 14.184 77.3673 13.848C77.1273 13.512 76.8153 13.248 76.4313 13.056C76.0473 12.848 75.5833 12.744 75.0393 12.744C74.4953 12.744 74.0313 12.848 73.6473 13.056C73.2633 13.248 72.9513 13.512 72.7113 13.848C72.4713 14.184 72.2953 14.584 72.1833 15.048C72.0713 15.512 72.0153 16.008 72.0153 16.536V20.664C72.0153 21.224 72.0633 21.736 72.1593 22.2C72.2553 22.664 72.4233 23.064 72.6633 23.4C72.9033 23.736 73.2153 24 73.5993 24.192C73.9833 24.368 74.4633 24.456 75.0393 24.456ZM83.5426 16.728C83.5426 14.552 84.0866 12.864 85.1746 11.664C86.2786 10.464 87.7986 9.864 89.7346 9.864C91.6706 9.864 93.1826 10.464 94.2706 11.664C95.3746 12.864 95.9266 14.552 95.9266 16.728V20.472C95.9266 22.712 95.3746 24.416 94.2706 25.584C93.1826 26.752 91.6706 27.336 89.7346 27.336C87.7986 27.336 86.2786 26.752 85.1746 25.584C84.0866 24.416 83.5426 22.712 83.5426 20.472V16.728ZM89.7346 24.456C90.3106 24.456 90.7906 24.368 91.1746 24.192C91.5586 24 91.8706 23.736 92.1106 23.4C92.3506 23.064 92.5186 22.664 92.6146 22.2C92.7106 21.736 92.7586 21.224 92.7586 20.664V16.536C92.7586 16.008 92.7026 15.512 92.5906 15.048C92.4786 14.584 92.3026 14.184 92.0626 13.848C91.8226 13.512 91.5106 13.248 91.1266 13.056C90.7426 12.848 90.2786 12.744 89.7346 12.744C89.1906 12.744 88.7266 12.848 88.3426 13.056C87.9586 13.248 87.6466 13.512 87.4066 13.848C87.1666 14.184 86.9906 14.584 86.8786 15.048C86.7666 15.512 86.7106 16.008 86.7106 16.536V20.664C86.7106 21.224 86.7586 21.736 86.8546 22.2C86.9506 22.664 87.1186 23.064 87.3586 23.4C87.5986 23.736 87.9106 24 88.2946 24.192C88.6786 24.368 89.1586 24.456 89.7346 24.456Z" fill="black"/>
<path d="M102.102 27H98.9339V10.2H102.102V17.088H102.798L107.238 10.2H110.814V10.344L105.63 18.384V18.816L111.102 26.856V27H107.382L102.798 20.112H102.102V27ZM116.797 27H113.629V10.2H116.797V17.088H117.493L121.933 10.2H125.509V10.344L120.325 18.384V18.816L125.797 26.856V27H122.077L117.493 20.112H116.797V27ZM136.677 23.4H130.965L130.149 27H126.837L130.845 10.2H136.797L140.805 27H137.493L136.677 23.4ZM131.637 20.376H135.981L134.037 11.784H133.605L131.637 20.376Z" fill="#2563EB"/>
<circle cx="22" cy="18" r="18" fill="#D9D9D9"/>
<path d="M49.4143 6.57847C49.6107 6.04787 49.3606 5.4662 48.8557 5.27927L40.627 2.23312C40.122 2.04619 39.5534 2.3248 39.357 2.8554C39.1606 3.386 39.4107 3.96767 39.9157 4.1546L47.23 6.86229L44.3848 14.5482C44.1884 15.0788 44.4385 15.6605 44.9435 15.8474C45.4484 16.0343 46.017 15.7557 46.2134 15.2251L49.4143 6.57847ZM0.895021 30.6787L48.895 7.15868L48.105 5.32134L0.104979 28.8413L0.895021 30.6787Z" fill="#2563EB"/>
</svg>
